<svg width="509" height="502" viewBox="0 0 509 502" fill="none" xmlns="http://www.w3.org/2000/svg">
<path fill-rule="evenodd" clip-rule="evenodd" d="M43.0874 1.95978C41.1687 0.0885683 37.9869 0.592843 36.7693 2.98029C23.6832 28.6375 14.0304 55.595 7.81099 83.1707C7.2505 85.6557 9.15359 88 11.7011 88C13.5902 88 15.2206 86.6812 15.6368 84.8385C21.7053 57.9705 31.1112 31.7042 43.8544 6.70108C44.659 5.12249 44.3558 3.19685 43.0874 1.95978ZM0.133698 182.22C-0.0197491 179.928 1.80808 178 4.10458 178C6.22823 178 7.97963 179.659 8.12213 181.777C13.3818 259.985 45.9019 336.703 105.682 396.484C164.161 454.963 238.849 487.355 315.283 493.662C317.377 493.834 319 495.575 319 497.675C319 499.996 317.033 501.833 314.72 501.642C236.429 495.206 159.923 462.038 100.025 402.141C38.7954 340.911 5.49817 262.325 0.133698 182.22ZM394 494.381C394 496.829 396.177 498.707 398.594 498.313C436.03 492.215 472.652 479.908 506.8 461.392C509.155 460.114 509.58 456.921 507.662 455.05C506.393 453.813 504.46 453.558 502.902 454.402C469.604 472.445 433.899 484.445 397.4 490.402C395.446 490.721 394 492.401 394 494.381Z" fill="#FFF9F9"/>
</svg>
