<svg width="814" height="156" viewBox="0 0 814 156" fill="none" xmlns="http://www.w3.org/2000/svg">
<path fill-rule="evenodd" clip-rule="evenodd" d="M171.397 15.5524C172.238 15.4053 173.078 15.2594 173.917 15.1146C176.052 14.7462 178 16.3933 178 18.5601C178 20.2679 176.768 21.726 175.085 22.0164C174.259 22.1591 173.431 22.3028 172.603 22.4477C103.468 34.5403 47.4385 29.8216 2.31233 14.2515C0.920607 13.7713 0 12.4577 0 10.9854C0 8.56384 2.40992 6.87989 4.6994 7.66881C48.6034 22.7975 103.375 27.4504 171.397 15.5524ZM692 83.079C692 85.6602 689.304 87.3544 686.976 86.238C582.971 36.3466 459.976 2.04624 306.662 7.90823C304.675 7.98421 303 6.39758 303 4.409C303 2.53523 304.494 0.993287 306.367 0.921805C461.047 -4.98341 585.213 29.6794 690.028 79.9375C691.237 80.5173 692 81.7381 692 83.079ZM759 122.655C759 123.903 759.662 125.057 760.738 125.69C777.138 135.342 793.059 145.276 808.558 155.366C810.897 156.889 814 155.215 814 152.424C814 151.239 813.402 150.134 812.409 149.488C796.818 139.34 780.792 129.344 764.274 119.628C761.938 118.254 759 119.943 759 122.655Z" fill="#700303"/>
</svg>
